<svg width="18px" height="17px" viewBox="0 0 18 17">
<style type="text/css">
	.st0{fill:none;stroke:#6FC67B;}
</style>
<path class="st0" d="M12.7,10.9L12.7,10.9L12.7,10.9c0.2-0.7,1.3-1,2-0.4l2.5,2.4l0.3-0.4l-0.3,0.4c0.4,0.4,0.4,1.1,0,1.6L15.5,16
	l0.3,0.4L15.5,16c-0.3,0.3-0.8,0.5-1.5,0.5c-0.7,0-1.5-0.2-2.5-0.5c-1.9-0.7-4.1-2.1-6.1-4.1c-2.1-2-3.6-4-4.3-5.8
	C0.7,5.2,0.5,4.4,0.5,3.8c0-0.6,0.2-1.1,0.5-1.4l1.7-1.6c0.4-0.4,1.2-0.4,1.8,0l2.5,2.4C7.6,3.8,7.3,4.7,6.5,5l0,0l0,0
	c-1,0.3-1.8,1.4-1.4,2.5c0.3,1,1.1,2.1,2,2.9c0.9,0.9,2.1,1.6,3.1,1.8v0l0,0C11.2,12.4,12.3,11.9,12.7,10.9z"/>
</svg>
