<svg width="12" height="12" viewBox="0 0 12 12" fill="none" xmlns="http://www.w3.org/2000/svg">
<path fill-rule="evenodd" clip-rule="evenodd" d="M2.97879 0.96582L6.28845 7.55743L9.18332 0.978089L9.68641 1.41828L9.35717 1.79457C9.68641 1.41828 9.68641 1.41828 9.68641 1.41828L9.68744 1.41918L9.68884 1.42041L9.69272 1.42385L9.70469 1.43463C9.71451 1.44355 9.72795 1.45592 9.74466 1.47171C9.77808 1.50327 9.82466 1.54853 9.88163 1.60711C9.99551 1.72421 10.1514 1.89506 10.3272 2.11684C10.678 2.55957 11.1121 3.21047 11.4465 4.04637C12.1221 5.73551 12.4347 8.1424 10.8573 11.034L9.18332 11.034C10.6062 8.42559 11.0923 5.85364 10.518 4.41777C10.175 3.56032 9.05512 3.6855 8.68205 4.5303L6.3573 9.79456C5.08812 7.04468 4.25091 5.35324 3.70733 4.31684C3.26565 3.47473 2.24824 3.47878 1.95843 4.38446C1.49789 5.82368 1.92624 8.41027 3.3573 11.034L1.71801 11.034C0.149211 8.15773 0.466577 5.76546 1.006 4.07969C1.27339 3.24407 1.64111 2.59176 1.94357 2.14645C2.09499 1.92353 2.23072 1.75149 2.33054 1.63321C2.38049 1.57404 2.42153 1.52821 2.45119 1.49609C2.46602 1.48002 2.478 1.46737 2.48684 1.45818L2.4977 1.447L2.50129 1.44336L2.50261 1.44203C2.50261 1.44203 2.50361 1.44103 2.85717 1.79457L2.50361 1.44103L2.97879 0.96582Z" fill="#FFAE43"/>
</svg>
