<svg width="36" height="36" viewBox="0 0 36 36" fill="none" xmlns="http://www.w3.org/2000/svg">
<path d="M27.5313 22.9713C27.4132 22.7724 27.0983 22.653 26.6259 22.4141C26.1535 22.1753 23.831 21.0214 23.3979 20.8621C22.965 20.703 22.65 20.6234 22.3351 21.1008C22.0202 21.5783 21.1149 22.653 20.8393 22.9713C20.5638 23.2896 20.2882 23.3296 19.816 23.0907C19.3436 22.852 17.8214 22.3483 16.017 20.723C14.6127 19.458 13.6646 17.8959 13.3891 17.4183C13.1135 16.9407 13.3597 16.6827 13.5962 16.4448C13.8087 16.231 14.0686 15.8875 14.3048 15.609C14.541 15.3305 14.6197 15.1314 14.7772 14.8133C14.9346 14.4947 14.8559 14.2163 14.7378 13.9775C14.6197 13.7387 13.675 11.3906 13.2813 10.4354C12.8978 9.50519 12.5084 9.6312 12.2185 9.61651C11.9432 9.60255 11.628 9.59961 11.3131 9.59961C10.9982 9.59961 10.4864 9.71901 10.0534 10.1966C9.62037 10.6742 8.40002 11.8283 8.40002 14.1762C8.40002 16.5243 10.0927 18.7927 10.3289 19.111C10.5651 19.4295 13.66 24.2478 18.3988 26.3142C19.5258 26.8057 20.4057 27.0992 21.0918 27.319C22.2234 27.6822 23.2533 27.6309 24.0672 27.5081C24.9748 27.3712 26.862 26.3541 27.2559 25.2399C27.6493 24.1254 27.6493 23.1702 27.5313 22.9713Z" fill="#6FC67B"/>
</svg>
