<svg width="19px" height="18px" viewBox="0 0 19 18">
<style type="text/css">
	.st0{fill:none;stroke:#6FC67B;}
	.st1{fill:#6FC67B;}
</style>
<path class="st0" d="M9.6,16.5c4.4,0,7.9-3.6,7.9-7.9c0-2.1-0.8-4.1-2.3-5.6c-1.5-1.5-3.5-2.3-5.6-2.3c-4.4,0-7.9,3.6-7.9,7.9
	c0,1.4,0.4,2.8,1.1,4l-1.1,4.1l4.2-1.1C7,16.2,8.3,16.5,9.6,16.5L9.6,16.5z"/>
<path class="st1" d="M13.6,10.4c0-0.1-0.2-0.1-0.4-0.2c-0.2-0.1-1.2-0.6-1.4-0.6c-0.2-0.1-0.3-0.1-0.4,0.1c-0.1,0.2-0.5,0.6-0.6,0.8
	c-0.1,0.1-0.2,0.1-0.4,0c-0.2-0.1-0.8-0.3-1.6-1C8.2,9,7.8,8.3,7.7,8.1c-0.1-0.2,0-0.3,0.1-0.4C7.9,7.6,8,7.5,8.1,7.4
	c0.1-0.1,0.1-0.2,0.2-0.3c0.1-0.1,0-0.2,0-0.3c0-0.1-0.4-1.1-0.6-1.5C7.5,4.8,7.3,4.9,7.2,4.9c-0.1,0-0.2,0-0.4,0s-0.3,0-0.5,0.2
	C6.1,5.3,5.6,5.8,5.6,6.8c0,1,0.7,1.9,0.8,2.1c0.1,0.1,1.4,2.1,3.4,3c0.5,0.2,0.8,0.3,1.1,0.4c0.5,0.2,0.9,0.1,1.2,0.1
	c0.4-0.1,1.2-0.5,1.3-0.9C13.7,10.9,13.7,10.5,13.6,10.4z"/>
</svg>
